<svg viewBox="0 0 800 800" xmlns="http://www.w3.org/2000/svg"><path d="M132.54300515200168,322.8093912733548 L124.0559819253989,322.987198793825 M124.0559819253989,322.987198793825 L115.89445492955485,324.3610856518868 M115.89445492955485,324.3610856518868 L108.56331231429255,326.84625723340605 M108.56331231429255,326.84625723340605 L102.51640585199812,330.28926791643755 M102.51640585199812,330.28926791643755 L98.12855391316128,334.47738397674755 M98.12855391316128,334.47738397674755 L95.67231148555646,339.15160209497355 M95.67231148555646,339.15160209497355 L95.3009411398632,344.02256023645157 M132.54300515200168,322.8093912733548 L131.808430851301,188.31784706037124 M94.46679815531746,209.47322880360912 L94.83931739463947,204.6155313280887 M94.83931739463947,204.6155313280887 L97.30223879000852,199.9540429851766 M97.30223879000852,199.9540429851766 L101.70188043074148,195.7773367697288 M101.70188043074148,195.7773367697288 L107.76495353625751,192.34370878799234 M107.76495353625751,192.34370878799234 L115.11563769185227,189.86531121421038 M115.11563769185227,189.86531121421038 L123.29887291930675,188.49516981669154 M123.29887291930675,188.49516981669154 L131.808430851301,188.31784706037124 M95.3009411398632,344.02256023645157 L94.46679815531746,209.47322880360912 M95.3009411398632,344.02256023645157 L117.71118892086417,587.8331307027383 M117.71118892086417,587.8331307027383 L118.76970297391506,590.2712334409605 M553.1630892702246,337.2601022450931 L132.54300515200168,322.8093912733548 M511.5159284656194,562.9579174034342 L509.71433581411515,576.1050303889408 M509.71433581411515,576.1050303889408 L505.3332051738759,589.0576839637207 M505.3332051738759,589.0576839637207 L498.4257932308305,601.6464167123406 M498.4257932308305,601.6464167123406 L489.0787090453037,613.7060378023621 M489.0787090453037,613.7060378023621 L477.4108983926158,625.0778329662965 M477.4108983926158,625.0778329662965 L463.57227327159035,635.6117437773562 M463.57227327159035,635.6117437773562 L447.7418728656526,645.1683906704886 M447.7418728656526,645.1683906704886 L430.12556629767585,653.6210519332578 M430.12556629767585,653.6210519332578 L410.953380918753,660.8573987637164 M410.953380918753,660.8573987637164 L390.4765067943561,666.7810886754692 M390.4765067943561,666.7810886754692 L368.9639004120359,671.3131359019837 M368.9639004120359,671.3131359019837 L346.698712481292,674.3930210938345 M346.698712481292,674.3930210938345 L323.97432454351286,675.9796201391728 M323.97432454351286,675.9796201391728 L301.0905098078778,676.0517079845415 M301.0905098078778,676.0517079845415 L278.3491432046088,674.608320850999 M278.3491432046088,674.608320850999 L256.0502310640733,671.6687525065815 M256.0502310640733,671.6687525065815 L234.48766403545937,667.2722847893647 M234.48766403545937,667.2722847893647 L213.94525120342652,661.4776230872958 M213.94525120342652,661.4776230872958 L194.69288093433113,654.3620297367363 M194.69288093433113,654.3620297367363 L176.98281621225817,646.0202674161405 M176.98281621225817,646.0202674161405 L161.04639561369433,636.5632076819102 M161.04639561369433,636.5632076819102 L147.0909511518009,626.1162817290444 M147.0909511518009,626.1162817290444 L135.29708104278126,614.8177518141981 M135.29708104278126,614.8177518141981 L125.81641830496187,602.8167423696251 M125.81641830496187,602.8167423696251 L118.76970297391506,590.2712334409605 M555.2512105722062,337.5620955702393 L553.1630892702246,337.2601022450931 M555.2512105722062,337.5620955702393 L576.8628326330386,341.5275399970259 M576.8628326330386,341.5275399970259 L597.5595519028811,346.8846181325853 M597.5595519028811,346.8846181325853 L617.0725662355455,353.56483217461266 M617.0725662355455,353.56483217461266 L635.147937538635,361.4825747063607 M635.147937538635,361.4825747063607 L651.5496437662971,370.53626529529384 M651.5496437662971,370.53626529529384 L666.0627794803347,380.60946420591023 M666.0627794803347,380.60946420591023 L678.4962696290845,391.57234235770505 M678.4962696290845,391.57234235770505 L688.6854106061369,403.2832526425957 M688.6854106061369,403.2832526425957 L696.4941562449876,415.5904700544746 M696.4941562449876,415.5904700544746 L701.8170345985641,428.33406711175996 M701.8170345985641,428.33406711175996 L704.5805884193792,441.34798053062383 M704.5805884193792,441.34798053062383 L704.7447003402178,454.4620647311965 M704.7447003402178,454.4620647311965 L702.3031300192731,467.5043714219931 M702.3031300192731,467.5043714219931 L697.2839801357275,480.30333561106727 M697.2839801357275,480.30333561106727 L689.7493815519601,492.69010527931954 M689.7493815519601,492.69010527931954 L679.7949905884077,504.5007465902016 M679.7949905884077,504.5007465902016 L667.5488526142051,515.5785293378849 M667.5488526142051,515.5785293378849 L653.1698486209993,525.7760364915322 M653.1698486209993,525.7760364915322 L636.8457448929953,534.9572355202615 M636.8457448929953,534.9572355202615 L618.7907033224994,542.9993781718442 M618.7907033224994,542.9993781718442 L599.242550430449,549.7947175393849 M599.242550430449,549.7947175393849 L578.4595363026915,555.2520499324776 M578.4595363026915,555.2520499324776 L556.7169228782097,559.2980397036428 M556.7169228782097,559.2980397036428 L534.3031387074964,561.878238719003 M534.3031387074964,561.878238719003 L511.5159284656194,562.9579174034342 M435.9777694599101,499.71685079765604 L431.41379335097287,497.65378165766083 M431.41379335097287,497.65378165766083 L426.12834257921025,496.28104190615045 M426.12834257921025,496.28104190615045 L420.4282292031564,495.6781755440564 M420.4282292031564,495.6781755440564 L414.64421680271624,495.8801094260775 M414.64421680271624,495.8801094260775 L409.11191435327964,496.87514465564067 M409.11191435327964,496.87514465564067 L404.1523948348116,498.60563124691373 M404.1523948348116,498.60563124691373 L400.0536359066117,500.97127568455863 M400.0536359066117,500.97127568455863 L397.05384172864393,503.8349079769725 M397.05384172864393,503.8349079769725 L395.327601193018,507.03038105165257 M395.327601193018,507.03038105165257 L394.97568131140065,510.37216298061753 M394.97568131140065,510.37216298061753 L396.0190731417244,513.6660795589831 M396.0190731417244,513.6660795589831 L398.39764297344885,516.7205901135288 M398.39764297344885,516.7205901135288 L401.9735180843817,519.3579438576023 M401.9735180843817,519.3579438576023 L406.53901036850726,521.4245631026971 M406.53901036850726,521.4245631026971 L411.82866192703483,522.8000403492695 M411.82866192703483,522.8000403492695 L417.53469735871505,523.4042038971672 M417.53469735871505,523.4042038971672 L423.32499487268865,523.201828829991 M423.32499487268865,523.201828829991 L428.8625069320986,522.2047158576493 M428.8625069320986,522.2047158576493 L433.8249684922415,520.4709917567392 M433.8249684922415,520.4709917567392 L437.9237260120481,518.1016906228265 M437.9237260120481,518.1016906228265 L440.92057565479087,515.2348201522803 M440.92057565479087,515.2348201522803 L442.64160498204257,512.0372703395844 M442.64160498204257,512.0372703395844 L442.9872394126306,508.69504806283084 M442.9872394126306,508.69504806283084 L441.93792652626024,505.4024276647193 M441.93792652626024,505.4024276647193 L439.5551580145493,502.3506537681079 M439.5551580145493,502.3506537681079 L435.9777694599101,499.71685079765604 M553.1630892702246,337.2601022450931 L553.545297418771,202.72918223679514 M553.545297418771,202.72918223679514 L131.808430851301,188.31784706037124 M94.46679815531746,209.47322880360912 L116.92903594444579,452.6264560202844 M116.92903594444579,452.6264560202844 L117.9903144565044,455.0580487602186 M555.6389696529266,203.03035315075934 L553.545297418771,202.72918223679514 M117.9903144565044,455.0580487602186 L125.05555820425764,467.5700796808234 M125.05555820425764,467.5700796808234 L134.56132067137247,479.539095249716 M134.56132067137247,479.539095249716 L146.3865494808816,490.80753186323454 M146.3865494808816,490.80753186323454 L160.37921365981444,501.2266567370946 M160.37921365981444,501.2266567370946 L176.35823620073114,510.658569484168 M176.35823620073114,510.658569484168 L194.11573121303195,518.9781661578497 M194.11573121303195,518.9781661578497 L213.41973841479015,526.0748636454343 M213.41973841479015,526.0748636454343 L234.01731367686224,531.8541451973103 M234.01731367686224,531.8541451973103 L255.63783718847884,536.2389485745355 M255.63783718847884,536.2389485745355 L277.9967285090342,539.170720180676 M277.9967285090342,539.170720180676 L300.7992966004153,540.6102796274016 M300.7992966004153,540.6102796274016 L323.7447170294714,540.5383829397717 M323.7447170294714,540.5383829397717 L346.5302911877294,538.9559914099641 M346.5302911877294,538.9559914099641 L368.85542802748023,535.884275310317 M368.85542802748023,535.884275310317 L390.4259462653425,531.3642525374539 M390.4259462653425,531.3642525374539 L410.9579245297603,525.4562859372185 M410.9579245297603,525.4562859372185 L430.1816759738644,518.239156678123 M430.1816759738644,518.239156678123 L447.8453305182132,509.808957164255 M447.8453305182132,509.808957164255 L463.71824056172557,500.27772388826736 M463.71824056172557,500.27772388826736 L477.59398466988466,489.77184785252354 M477.59398466988466,489.77184785252354 L489.2930464177616,478.4303437129524 M489.2930464177616,478.4303437129524 L498.6651175908013,466.4028756607345 M498.6651175908013,466.4028756607345 L505.5909417921667,453.84773943447954 M505.5909417921667,453.84773943447954 L509.98368810821324,440.9296885564688 M509.98368810821324,440.9296885564688 L511.78996888148237,427.817734012231 M511.78996888148237,427.817734012231 L534.6382360347211,426.7409442627457 M534.6382360347211,426.7409442627457 L557.1120476691815,424.1676501759828 M557.1120476691815,424.1676501759828 L578.9128515935386,420.1324908013084 M578.9128515935386,420.1324908013084 L599.7514384633757,414.68977219745466 M599.7514384633757,414.68977219745466 L619.3518031594917,407.9126383657802 M619.3518031594917,407.9126383657802 L637.4550007834439,399.89205419289584 M637.4550007834439,399.89205419289584 L653.8225678099768,390.73548380376013 M653.8225678099768,390.73548380376013 L668.2397719657108,380.56535242116485 M668.2397719657108,380.56535242116485 L680.5183504815082,369.51733349142205 M680.5183504815082,369.51733349142205 L690.4990062278375,357.73845360319984 M690.4990062278375,357.73845360319984 L698.0533628863529,345.3850263581336 M698.0533628863529,345.3850263581336 L703.085522012545,332.6205481820577 M703.085522012545,332.6205481820577 L705.5332018446825,319.6134187800561 M705.5332018446825,319.6134187800561 L705.3682406536298,306.5347417011875 M705.3682406536298,306.5347417011875 L702.5969116508772,293.55600087078295 M702.5969116508772,293.55600087078295 L697.2594549733958,280.84688049623344 M697.2594549733958,280.84688049623344 L689.4295383536974,268.57299174984473 M689.4295383536974,268.57299174984473 L679.2129277243371,256.893825009632 M679.2129277243371,256.893825009632 L666.7460423118687,245.96068904857196 M666.7460423118687,245.96068904857196 L652.1940322917762,235.9148410218612 M652.1940322917762,235.9148410218612 L635.7484863933714,226.8857514276366 M635.7484863933714,226.8857514276366 L617.6248839234972,218.98953744930034 M617.6248839234972,218.98953744930034 L598.0598737751629,212.32749738925614 M598.0598737751629,212.32749738925614 L577.3080655269505,206.985000365444 M577.3080655269505,206.985000365444 L555.6389696529266,203.03035315075934 M495.37528282838866,373.62968847202166 L516.4925181295145,385.7349538616841 M494.47258077786745,359.5744900975386 L495.37528282838866,373.62968847202166 M494.47258077786745,359.5744900975386 L494.47258077786745,359.5744900975386 M491.93935510667865,320.1334163360779 L500.19702629749423,320.54102092324024 M500.19702629749423,320.54102092324024 L508.0492395977484,322.06936184831363 M508.0492395977484,322.06936184831363 L515.0405693220143,324.6299947608926 M515.0405693220143,324.6299947608926 L520.7651634275643,328.07468742074224 M520.7651634275643,328.07468742074224 L524.8902878116537,332.20387431031656 M524.8902878116537,332.20387431031656 L527.1756228812403,336.778137785757 M527.1756228812403,336.778137785757 L527.487429307037,341.53196998938256 M527.487429307037,341.53196998938256 L525.8064693761805,346.18914297744027 M525.8064693761805,346.18914297744027 L522.2294366422461,350.4787357203671 M522.2294366422461,350.4787357203671 L516.9635026226342,354.1509670942691 M516.9635026226342,354.1509670942691 L510.31449923103276,356.99178980189834 M510.31449923103276,356.99178980189834 L502.669161044299,358.83549855541384 M502.669161044299,358.83549855541384 L494.47258077786745,359.5744900975386 M491.93935510667865,320.1334163360779 L491.93935510667865,320.1334163360779 M489.41411751477085,280.8161197818986 L491.93935510667865,320.1334163360779 M489.41411751477085,280.8161197818986 L489.41411751477085,280.8161197818986 M486.8967589234405,241.6220042358624 L495.12847534037104,242.02705882967814 M495.12847534037104,242.02705882967814 L502.9557869015478,243.54583279513946 M502.9557869015478,243.54583279513946 L509.92468568121956,246.09044114463217 M509.92468568121956,246.09044114463217 L515.6306275892921,249.51358168765347 M515.6306275892921,249.51358168765347 L519.7419777029695,253.6169236246268 M519.7419777029695,253.6169236246268 L522.0192111780268,258.1625514261554 M522.0192111780268,258.1625514261554 L522.32906528584,262.8866183147933 M522.32906528584,262.8866183147933 L520.6524227191576,267.51462575719404 M520.6524227191576,267.51462575719404 L517.0857324822724,271.77735015705167 M517.0857324822724,271.77735015705167 L511.8355741489414,275.4265738191336 M511.8355741489414,275.4265738191336 L505.2068529849583,278.2496015789169 M505.2068529849583,278.2496015789169 L497.58513204972854,280.0817576677598 M497.58513204972854,280.0817576677598 L489.41411751477085,280.8161197818986 M486.8967589234405,241.6220042358624 L486.8967589234405,241.6220042358624 M484.76321214026774,208.40343759964932 L486.8967589234405,241.6220042358624 M228.70811725092435,213.50576831032723 L484.76321214026774,208.40343759964932 M179.84143530776842,214.47951029459168 L185.7201090964487,211.56980237563178 M185.7201090964487,211.56980237563178 L192.58831156029723,209.48782032787773 M192.58831156029723,209.48782032787773 L200.0933567221876,208.340183654386 M200.0933567221876,208.340183654386 L207.85010725356364,208.18565407986023 M207.85010725356364,208.18565407986023 L215.460603743544,209.03213905234512 M215.460603743544,209.03213905234512 L222.53432123273296,210.83630465530624 M222.53432123273296,210.83630465530624 L228.70811725092435,213.50576831032723 M129.00099521037845,215.49258972027818 L179.84143530776842,214.47951029459168 M137.8412914411137,392.46788768264815 L129.00099521037845,215.49258972027818 M173.88757842181116,391.7445138238708 L137.8412914411137,392.46788768264815 M217.4112406280776,403.90661913498894 L209.91581692420775,404.8552670395602 M209.91581692420775,404.8552670395602 L202.2484254549338,404.8290881060453 M202.2484254549338,404.8290881060453 L194.78889570296766,403.82936971379047 M194.78889570296766,403.82936971379047 L187.90668279571005,401.9057503514393 M187.90668279571005,401.9057503514393 L181.94247554626605,399.1536906297057 M181.94247554626605,399.1536906297057 L177.19122971503953,395.7097115756649 M177.19122971503953,395.7097115756649 L173.88757842181116,391.7445138238708 M217.4112406280776,403.90661913498894 L208.33130011174956,411.4498623082115 M208.33130011174956,411.4498623082115 L200.89820632112782,419.57145967833975 M200.89820632112782,419.57145967833975 L195.2227716401909,428.1526273231898 M195.2227716401909,428.1526273231898 L191.39024011948274,437.06762896596683 M191.39024011948274,437.06762896596683 L188.45033414284381,437.1267377752028 M190.51546963756124,476.93724830243417 L182.2113405597002,476.52454637764936 M182.2113405597002,476.52454637764936 L174.33071913630906,474.9773139071865 M174.33071913630906,474.9773139071865 L167.33247076755688,472.3858672584728 M167.33247076755688,472.3858672584728 L161.62378521047245,468.90139486186797 M161.62378521047245,468.90139486186797 L157.5363327171019,464.7270602132931 M157.5363327171019,464.7270602132931 L155.30711929600534,460.10599115213955 M155.30711929600534,460.10599115213955 L155.0647131291949,455.30711165603344 M155.0647131291949,455.30711165603344 L156.82211686567152,450.609335769356 M156.82211686567152,450.609335769356 L160.47615760332474,446.28543012909336 M160.47615760332474,446.28543012909336 L165.81378408097197,442.58618585445504 M165.81378408097197,442.58618585445504 L172.5245909556381,439.7259545940729 M172.5245909556381,439.7259545940729 L180.2189040458526,437.8703432781447 M180.2189040458526,437.8703432781447 L188.45033414284381,437.1267377752028 M190.51546963756124,476.93724830243417 L197.23840940467358,476.801874248814 M197.23840940467358,476.801874248814 L204.68897525978434,486.3832194258475 M204.68897525978434,486.3832194258475 L214.37801499533063,495.2778140275448 M214.37801499533063,495.2778140275448 L226.12045183120202,503.31284762156315 M226.12045183120202,503.31284762156315 L239.69085806606205,510.3319074440563 M239.69085806606205,510.3319074440563 L254.82774195784927,516.1981206604526 M254.82774195784927,516.1981206604526 L271.23861455220526,520.7969222327774 M271.23861455220526,520.7969222327774 L288.60572535350786,524.0383928819516 M288.60572535350786,524.0383928819516 L306.59232749510903,525.8590784141891 M306.59232749510903,525.8590784141891 L324.8493285908734,526.2233345278713 M324.8493285908734,526.2233345278713 L343.02223807528856,525.1240185505765 M343.02223807528856,525.1240185505765 L360.7582609604197,522.5826663311987 M360.7582609604197,522.5826663311987 L377.7133081479852,518.6490344580765 M377.7133081479852,518.6490344580765 L393.5588006713753,513.400072922507 M393.5588006713753,513.400072922507 L407.9882553535022,506.9383727424636 M407.9882553535022,506.9383727424636 L420.7231856102018,499.3900229544029 M420.7231856102018,499.3900229544029 L431.5186320705914,490.9021105800127 M431.5186320705914,490.9021105800127 L440.1677847053738,481.63968856839705 M440.1677847053738,481.63968856839705 L446.5059264243484,471.7825143635596 M446.5059264243484,471.7825143635596 L460.1380741013591,471.5080124615676 M457.64778540686655,431.7146199090873 L465.9416427246378,432.1258616046267 M465.9416427246378,432.1258616046267 L473.8267343785738,433.6678417108813 M473.8267343785738,433.6678417108813 L480.84568636981226,436.2513314128655 M480.84568636981226,436.2513314128655 L486.5910637299265,439.72678082557667 M486.5910637299265,439.72678082557667 L490.72889960724456,443.89283987080717 M490.72889960724456,443.89283987080717 L493.0181570717176,448.5079555281214 M493.0181570717176,448.5079555281214 L493.3248507542329,453.3042529131584 M493.3248507542329,453.3042529131584 L491.6300255394211,458.0030288125658 M491.6300255394211,458.0030288125658 L488.03117452262484,462.3309553575275 M488.03117452262484,462.3309553575275 L482.7367362350518,466.0360091347927 M482.7367362350518,466.0360091347927 L476.0541890734853,468.90221897616 M476.0541890734853,468.90221897616 L468.3722277788555,470.7624158727002 M468.3722277788555,470.7624158727002 L460.1380741013591,471.5080124615676 M457.64778540686655,431.7146199090873 L447.80805062332274,431.9124450136381 M445.2202437636469,426.79204687789667 L446.152423898383,428.4868018799347 M446.152423898383,428.4868018799347 L447.0151923962294,430.1939159440211 M447.0151923962294,430.1939159440211 L447.80805062332274,431.9124450136381 M516.4925181295145,385.7349538616841 L445.2202437636469,426.79204687789667 M117.71118892086417,587.8331307027383 L116.92903594444579,452.6264560202844 M118.76970297391506,590.2712334409605 L117.9903144565044,455.0580487602186 M511.5159284656194,562.9579174034342 L511.78996888148237,427.817734012231 M555.2512105722062,337.5620955702393 L555.6389696529266,203.03035315075934 M435.98370604997916,488.49680035164266 L435.9777694599101,499.71685079765604 M435.98370604997916,488.49680035164266 L431.4187152653088,486.4341901674752 M431.4187152653088,486.4341901674752 L426.13208977582104,485.06175584081035 M426.13208977582104,485.06175584081035 L420.43070975074744,484.45902362268583 M420.43070975074744,484.45902362268583 L414.64541215812096,484.66091257162736 M414.64541215812096,484.66091257162736 L409.1118804254508,485.65572640258557 M409.1118804254508,485.65572640258557 L404.1512587765154,487.38582799643433 M404.1512587765154,487.38582799643433 L400.0515888105902,489.7509462124984 M400.0515888105902,489.7509462124984 L397.0511276335332,492.613941641141 M397.0511276335332,492.613941641141 L395.3245030127202,495.80870422204947 M395.3245030127202,495.80870422204947 L394.97250447909806,499.1497433186981 M394.97250447909806,499.1497433186981 L396.0161279007986,502.4429278969873 M396.0161279007986,502.4429278969873 L398.39522633283997,505.4967598248659 M398.39522633283997,505.4967598248659 L401.97189649300833,508.1335277549861 M401.97189649300833,508.1335277549861 L406.53840412752976,510.19968804432807 M406.53840412752976,510.19968804432807 L411.8292322719101,511.5748598659625 M411.8292322719101,511.5748598659625 L417.5365369860163,512.1788892697793 M417.5365369860163,512.1788892697793 L423.3281224872368,511.97655913577563 M423.3281224872368,511.97655913577563 L428.8668661465653,510.9796675621499 M428.8668661465653,510.9796675621499 L433.8304311450705,509.2463284585892 M433.8304311450705,509.2463284585892 L437.93009970166275,506.877553546257 M437.93009970166275,506.877553546257 L440.9276150339361,504.0113199395563 M440.9276150339361,504.0113199395563 L442.6490261286236,500.81448062052044 M442.6490261286236,500.81448062052044 L442.994736415931,497.47300117599025 M442.994736415931,497.47300117599025 L441.9451893054449,494.18111277806656 M441.9451893054449,494.18111277806656 L439.56189032669465,491.1300175082153 M439.56189032669465,491.1300175082153 L435.98370604997916,488.49680035164266 M516.230172240244,509.5373210336655 L516.4925181295145,385.7349538616841 M380.1827264695403,431.1645694508098 L516.230172240244,509.5373210336655 M380.1827264695403,431.1645694508098 L380.15044914231805,375.0536102101934 M380.15044914231805,375.0536102101934 L495.2602938516871,441.21706925840715 M495.37528282838866,373.62968847202166 L495.2602938516871,441.21706925840715 M484.76321214026774,208.40343759964932 L484.66305660218615,275.7658871725463 M495.2602938516871,441.21706925840715 L484.66305660218615,275.7658871725463 M494.472552917677,359.5744900975386 L494.4440944559294,376.4835053413358 M494.4440944559294,376.4835053413358 L491.9117860826415,337.02901959458666 M491.9117860826415,337.02901959458666 L491.93935510667865,320.1334163360779 M489.4140966809567,280.81611845749154 L489.38741166104285,297.6983105984317 M489.38741166104285,297.6983105984317 L486.87095250582405,258.49078631266184 M486.87095250582405,258.49078631266184 L486.8967589234405,241.6220042358624 M494.4440944559294,376.4835053413358 L494.44412230681485,376.4835053413358 M494.44412230681485,376.4835053413358 L494.47258077786745,359.5744900975386 M491.9118070149221,337.0290209651441 L491.9393760459431,320.13341770616876 M491.9118070149221,337.0290209651441 L500.1667031474134,337.4367629999881 M500.1667031474134,337.4367629999881 L508.0162959690922,338.9656243940349 M508.0162959690922,338.9656243940349 L515.0052905558994,341.52712917815404 M515.0052905558994,341.52712917815404 L520.7279702654987,344.97299444822863 M520.7279702654987,344.97299444822863 L524.8517122833191,349.1035865408566 M524.8517122833191,349.1035865408566 L527.1362777345887,353.67940615331827 M527.1362777345887,353.67940615331827 L527.4479726386205,358.4348549918475 M527.4479726386205,358.4348549918475 L525.7675665048237,363.0936111604659 M525.7675665048237,363.0936111604659 L522.191721374656,367.38466161615474 M522.191721374656,367.38466161615474 L516.9275402169113,371.0581405184971 M516.9275402169113,371.0581405184971 L510.28075321614665,373.8999280625581 M510.28075321614665,373.8999280625581 L502.63796592942447,375.74426288497307 M502.63796592942447,375.74426288497307 L494.44412230681485,376.4835053413358 M491.9118070149221,337.0290209651441 L491.9117860826415,337.02901959458666 M489.38741166104285,297.6983105984317 L489.38743248791917,297.6983119232912 M489.38743248791917,297.6983119232912 L489.41411751477085,280.8161197818986 M486.87097561405415,258.49078895408775 L486.8967820393574,241.62200687638347 M486.87097561405415,258.49078895408775 L495.09993207981387,258.89597970297814 M495.09993207981387,258.89597970297814 L502.92463975746796,260.4152740544796 M502.92463975746796,260.4152740544796 L509.89121835577595,262.9607541397541 M509.89121835577595,262.9607541397541 L515.5952583164122,266.3850671154959 M515.5952583164122,266.3850671154959 L519.7052352761484,270.4898140444401 M519.7052352761484,270.4898140444401 L521.9817045732755,275.03699775407443 M521.9817045732755,275.03699775407443 L522.2914485058243,279.762681045195 M522.2914485058243,279.762681045195 L520.6153569036362,284.39227144588057 M520.6153569036362,284.39227144588057 L517.0498474171252,288.6564533585156 M517.0498474171252,288.6564533585156 L511.8014314637065,292.3069243805478 M511.8014314637065,292.3069243805478 L505.1749131914933,295.1309168507672 M505.1749131914933,295.1309168507672 L497.55572742346084,296.96369892692576 M497.55572742346084,296.96369892692576 L489.38743248791917,297.6983119232912 M486.87097561405415,258.49078895408775 L486.87095250582405,258.49078631266184 M179.84143530776842,214.47951029459168 L179.9176171212767,231.33898173759187 M228.76807014923313,230.3649053681549 L179.9176171212767,231.33898173759187 M228.70811725092435,213.50576831032723 L228.76807014923313,230.3649053681549 M484.66305660218615,275.7658871725463 L129.37289499562843,282.8647498269827 M129.00099521037845,215.49258972027818 L129.37289499562843,282.8647498269827 M179.9176171212767,231.33898173759187 L185.79433019569962,228.42827454344325 M185.79433019569962,228.42827454344325 L192.66024628196612,226.34557734639563 M192.66024628196612,226.34557734639563 L200.16279663789282,225.19754641672625 M200.16279663789282,225.19754641672625 L207.91697169709315,225.04296375282564 M207.91697169709315,225.04296375282564 L215.52494387994062,225.88973953147666 M215.52494387994062,225.88973953147666 L222.59631747855195,227.69452488388362 M222.59631747855195,227.69452488388362 L228.76807014923313,230.3649053681549 M137.8412914411137,392.46788768264815 L138.2040114805975,460.08072926207797 M129.37289499562843,282.8647498269827 L138.2040114805975,460.08072926207797 M241.29129732761152,390.39184056689527 L239.62594798810858,390.4252655006606 M241.29129732761152,390.39184056689527 L241.51575209709654,458.0018781151335 M138.2040114805975,460.08072926207797 L241.51575209709654,458.0018781151335 M173.88757842181116,391.7445138238708 L173.9662923314017,408.6644378556052 M173.9662923314017,408.6644378556052 L239.68267493885938,407.3447427198476 M239.62594798810858,390.4252655006606 L239.68267493885938,407.3447427198476 M217.47543055719092,420.83066013366243 L217.4112406280776,403.90661913498894 M217.47543055719092,420.83066013366243 L209.98251717364536,421.779628997333 M209.98251717364536,421.779628997333 L202.31769107019716,421.7534412069368 M202.31769107019716,421.7534412069368 L194.86065435252576,420.75338457536367 M194.86065435252576,420.75338457536367 L187.98073841115746,418.82911431117265 M187.98073841115746,418.82911431117265 L182.01851817340105,416.07612319402625 M182.01851817340105,416.07612319402625 L177.268851071747,412.63097829025975 M177.268851071747,412.63097829025975 L173.9662923314017,408.6644378556052 M191.46323222055153,454.00287521577576 L191.39024011948274,437.06762896596683 M197.30955433269972,493.75050831687327 L192.39420832841805,484.070228142324 M192.39420832841805,484.070228142324 L189.75885193284907,474.10025552701694 M189.75885193284907,474.10025552701694 L189.44759553258402,464.01811445115385 M189.44759553258402,464.01811445115385 L191.46323222055153,454.00287521577576 M197.30955433269972,493.75050831687327 L197.23840940467358,476.801874248814 M446.49343266418134,488.7294595582176 L446.5059264243484,471.7825143635596 M447.79514046870776,448.8459512260638 L450.94644428883674,458.75515932747174 M450.94644428883674,458.75515932747174 L451.7847934796631,468.8245849384051 M451.7847934796631,468.8245849384051 L450.2925309918552,478.87559386165117 M450.2925309918552,478.87559386165117 L446.49343266418134,488.7294595582176 M447.79514046870776,448.8459512260638 L447.80805062332274,431.9124450136381 M445.2202437636469,426.79204687789667 L445.1721284314826,494.451182152964 M241.51575209709654,458.0018781151335 L227.61338838997025,465.0367721088745 M227.61338838997025,465.0367721088745 L215.55201793560244,473.1305120619128 M215.55201793560244,473.1305120619128 L205.5723366156143,482.1237710184483 M205.5723366156143,482.1237710184483 L197.87446145365703,491.8391717746945 M197.87446145365703,491.8391717746945 L192.61383775541648,502.08465951346307 M192.61383775541648,502.08465951346307 L189.89799840331196,512.6572081739828 M189.89799840331196,512.6572081739828 L189.78418140278927,523.3468014890836 M189.78418140278927,523.3468014890836 L192.27791492112382,533.9405860472402 M192.27791492112382,533.9405860472402 L197.33269919295353,544.2270666495282 M197.33269919295353,544.2270666495282 L204.85068575870602,554.0003681023957 M204.85068575870602,554.0003681023957 L214.6843544687127,563.0644365129167 M214.6843544687127,563.0644365129167 L226.63929113505603,571.2370448439792 M226.63929113505603,571.2370448439792 L240.47795277729804,578.3535577829576 M240.47795277729804,578.3535577829576 L255.92435587683943,584.2703536703109 M255.92435587683943,584.2703536703109 L272.6696076178311,588.8678384098896 M272.6696076178311,588.8678384098896 L290.37815075350846,592.0529619460963 M290.37815075350846,592.0529619460963 L308.6945514412625,593.761237888091 M308.6945514412625,593.761237888091 L327.2509516305996,593.9580090437441 M327.2509516305996,593.9580090437441 L345.6744497847288,592.6393161124872 M345.6744497847288,592.6393161124872 L363.5949504851132,589.8318695417765 M363.5949504851132,589.8318695417765 L380.6527019089674,585.5925539561395 M380.6527019089674,585.5925539561395 L396.5057239475081,580.0071797402277 M396.5057239475081,580.0071797402277 L410.8367664121456,573.1886738680737 M410.8367664121456,573.1886738680737 L423.3598064753462,565.2747162415737 M423.3598064753462,565.2747162415737 L433.8257275351326,556.4247981252943 M433.8257275351326,556.4247981252943 L442.027305150408,546.8169452291465 M442.027305150408,546.8169452291465 L447.80320909890696,536.6440105535421 M447.80320909890696,536.6440105535421 L451.04106004276883,526.1097082908665 M451.04106004276883,526.1097082908665 L451.67947410267726,515.4244819411883 M451.67947410267726,515.4244819411883 L449.70901530153304,504.80125343437675 M449.70901530153304,504.80125343437675 L445.1721284314826,494.451182152964 M239.127461656242,391.3582602495678 L239.84486966437228,391.0332385858295 M239.84486966437228,391.0332385858295 L240.56615904257592,390.71109787467344 M240.56615904257592,390.71109787467344 L241.29129732761152,390.39184056689527 M239.184357411921,408.2780534669502 L239.127461656242,391.3582602495678 M217.47543055719092,420.83066013366243 L224.13867549778575,416.32416318834294 M224.13867549778575,416.32416318834294 L231.38982230205664,412.131492434834 M231.38982230205664,412.131492434834 L239.184357411921,408.2780534669502 M188.52431134260286,454.0620039719986 L188.45033414284381,437.1267377752028 M191.46323222055153,454.00287521577576 L188.52431134260286,454.0620039719986 M190.5888708274007,493.88592791076485 L190.51546963756124,476.93724830243417 M190.5888708274007,493.88592791076485 L182.28752695041655,493.47308715018846 M182.28752695041655,493.47308715018846 L174.40954498768,491.92533413961604 M174.40954498768,491.92533413961604 L167.41363635558577,489.3330154998763 M167.41363635558577,489.3330154998763 L161.70685452082864,485.84737033784694 M161.70685452082864,485.84737033784694 L157.6207591546221,481.6716303119953 M157.6207591546221,481.6716303119953 L155.39227777103642,477.04900492999457 M155.39227777103642,477.04900492999457 L155.14993666091362,472.2485086268296 M155.14993666091362,472.2485086268296 L156.90673543030195,467.5491494023588 M156.90673543030195,467.5491494023588 L160.55953702490024,463.2237859141881 M160.55953702490024,463.2237859141881 L165.89536265973732,459.52329400734914 M165.89536265973732,459.52329400734914 L172.60391178426585,456.662097836224 M172.60391178426585,456.662097836224 L180.29564120531978,454.80586040571785 M180.29564120531978,454.80586040571785 L188.52431134260286,454.0620039719986 M190.5888708274007,493.88592791076485 L197.30955433269972,493.75050831687327 M460.12100719964286,488.4548652747127 L460.1380741013591,471.5080124615676 M446.49343266418134,488.7294595582176 L460.12100719964286,488.4548652747127 M457.63157955396906,448.6480593351957 L457.64778540686655,431.7146199090873 M457.63157955396906,448.6480593351957 L465.9226585505511,449.0594398659313 M465.9226585505511,449.0594398659313 L473.80510774109393,450.6019405045744 M473.80510774109393,450.6019405045744 L480.82170610568886,453.1863021836214 M480.82170610568886,453.1863021836214 L486.5651551410778,456.6629243464918 M486.5651551410778,456.6629243464918 L490.70160010246553,460.8303887563103 M490.70160010246553,460.8303887563103 L492.99008527164165,465.4470607219923 M492.99008527164165,465.4470607219923 L493.2966707956058,470.24497491254925 M493.2966707956058,470.24497491254925 L491.60240859733386,474.94533414959113 M491.60240859733386,474.94533414959113 L488.0047597321366,479.2747185477138 M488.0047597321366,479.2747185477138 L482.7120933412223,482.9810199685216 M482.7120933412223,482.9810199685216 L476.0317849900995,485.8481947295485 M476.0317849900995,485.8481947295485 L468.35239909090126,487.70901775089806 M468.35239909090126,487.70901775089806 L460.12100719964286,488.4548652747127 M457.63157955396906,448.6480593351957 L447.79514046870776,448.8459512260638 M445.1721284314826,494.451182152964 L438.5216230437937,498.2925673676663 M438.5216230437937,498.2925673676663 L438.4890283192538,554.5412820266217 M516.230172240244,509.5373210336655 L438.4890283192538,554.5412820266217 M302.4415817597292,475.88931288122404 L380.1827264695403,431.1645694508098 M438.4890283192538,554.5412820266217 L302.4415817597292,475.88931288122404 M302.32281033818475,419.72826158884595 L380.15044914231805,375.0536102101934 M438.5216230437937,498.2925673676663 L302.32281033818475,419.72826158884595 M239.127461656242,391.3582602495678 L239.30248797537507,391.04881487066245 M239.30248797537507,391.04881487066245 L239.468668799806,390.7377845168043 M239.468668799806,390.7377845168043 L239.62594798810858,390.4252655006606 M239.184357411921,408.2780534669502 L239.35932450062745,407.9685032838272 M239.35932450062745,407.9685032838272 L239.52544905045167,407.65736758637655 M239.52544905045167,407.65736758637655 L239.68267493885938,407.3447427198476 M302.4415817597292,475.88931288122404 L302.32281033818475,419.72826158884595" stroke="black"  stroke-width="4"  fill="red"/>
<path d="M302.3703505862215,442.20766171494387 L380.1633686671259,397.5129335893973 M380.1633686671259,397.5129335893973 L380.15044914231805,375.0536102101934 M302.32281033818475,419.72826158884595 L380.15044914231805,375.0536102101934 M302.3703505862215,442.20766171494387 L302.32281033818475,419.72826158884595 M380.1633686671259,397.5129335893973 L516.3015937229573,475.83315798611653 M516.3015937229573,475.83315798611653 L438.5085764329812,520.8071030545686 M438.5085764329812,520.8071030545686 L302.3703505862215,442.20766171494387 M516.3015937229573,475.83315798611653 L516.4566679389986,402.65284215703156 M516.4566679389986,402.65284215703156 L495.34650676435626,390.54347319367116 M495.2602938516871,441.21706925840715 L495.34650676435626,390.54347319367116 M380.15044914231805,375.0536102101934 L495.2602938516871,441.21706925840715 M445.1721284314826,494.451182152964 L438.5637689365985,485.05207928705613 M438.5637689365985,485.05207928705613 L429.8407727830863,476.2534648367086 M429.8407727830863,476.2534648367086 L419.16159924439063,468.21233040817293 M419.16159924439063,468.21233040817293 L406.71922629856147,461.0718592365471 M406.71922629856147,461.0718592365471 L392.7376288918747,454.9589738969835 M445.1721284314826,494.451182152964 L438.5216230437937,498.2925673676663 M438.5216230437937,498.2925673676663 L302.32281033818475,419.72826158884595 M496.00737442069044,452.8809663960718 L495.2602938516871,441.21706925840715 M392.7376288918747,454.9589738969835 L496.00737442069044,452.8809663960718 M438.5085764329812,520.8071030545686 L438.5216230437937,498.2925673676663 M445.20820284586745,443.7238240938261 L445.1721284314826,494.451182152964 M445.20820284586745,443.7238240938261 L516.4566679389986,402.65284215703156 M392.7210511250967,404.2714780734549 L406.7166724829523,410.3781851361659 M406.7166724829523,410.3781851361659 L419.1715318926711,417.51144321689037 M419.1715318926711,417.51144321689037 L429.8614296639188,425.54445958712 M429.8614296639188,425.54445958712 L438.59319330257006,434.3341971463275 M438.59319330257006,434.3341971463275 L445.20820284586745,443.7238240938261 M392.7210511250967,404.2714780734549 L496.09437662568894,402.19557148617787 M496.09437662568894,402.19557148617787 L495.34650676435626,390.54347319367116 M496.00737442069044,452.8809663960718 L496.09437662568894,402.19557148617787 M392.7210511250967,404.2714780734549 L392.7376288918747,454.9589738969835" stroke="black"  stroke-width="4"  fill="red"/>
<path d="M435.98370604997916,488.49680035164266 L431.4187152653088,486.4341901674752 M431.4187152653088,486.4341901674752 L426.13208977582104,485.06175584081035 M426.13208977582104,485.06175584081035 L420.43070975074744,484.45902362268583 M420.43070975074744,484.45902362268583 L414.64541215812096,484.66091257162736 M414.64541215812096,484.66091257162736 L409.1118804254508,485.65572640258557 M409.1118804254508,485.65572640258557 L404.1512587765154,487.38582799643433 M404.1512587765154,487.38582799643433 L400.0515888105902,489.7509462124984 M400.0515888105902,489.7509462124984 L397.0511276335332,492.613941641141 M397.0511276335332,492.613941641141 L395.3245030127202,495.80870422204947 M395.3245030127202,495.80870422204947 L394.97250447909806,499.1497433186981 M394.97250447909806,499.1497433186981 L396.0161279007986,502.4429278969873 M396.0161279007986,502.4429278969873 L398.39522633283997,505.4967598248659 M398.39522633283997,505.4967598248659 L401.97189649300833,508.1335277549861 M401.97189649300833,508.1335277549861 L406.53840412752976,510.19968804432807 M406.53840412752976,510.19968804432807 L411.8292322719101,511.5748598659625 M411.8292322719101,511.5748598659625 L417.5365369860163,512.1788892697793 M417.5365369860163,512.1788892697793 L423.3281224872368,511.97655913577563 M423.3281224872368,511.97655913577563 L428.8668661465653,510.9796675621499 M428.8668661465653,510.9796675621499 L433.8304311450705,509.2463284585892 M433.8304311450705,509.2463284585892 L437.93009970166275,506.877553546257 M437.93009970166275,506.877553546257 L440.9276150339361,504.0113199395563 M440.9276150339361,504.0113199395563 L442.6490261286236,500.81448062052044 M442.6490261286236,500.81448062052044 L442.994736415931,497.47300117599025 M442.994736415931,497.47300117599025 L441.9451893054449,494.18111277806656 M441.9451893054449,494.18111277806656 L439.56189032669465,491.1300175082153 M439.56189032669465,491.1300175082153 L435.98370604997916,488.49680035164266 M435.98370604997916,488.49680035164266 L435.9718355072999,510.9319164930964 M435.9718355072999,510.9319164930964 L431.4088736231255,508.8683890085534 M431.4088736231255,508.8683890085534 L426.1245970471461,507.49534423893505 M426.1245970471461,507.49534423893505 L420.42574975742605,506.8923439114986 M420.42574975742605,506.8923439114986 L414.64302197829335,507.094322666767 M414.64302197829335,507.094322666767 L409.11194826603696,508.0895790001099 M409.11194826603696,508.0895790001099 L404.15353038841147,509.8204500760705 M404.15353038841147,509.8204500760705 L400.0556820931212,512.1866200343643 M400.0556820931212,512.1866200343643 L397.0565546177623,515.0508883420657 M397.0565546177623,515.0508883420657 L395.33069799648325,518.2470709637107 M395.33069799648325,518.2470709637107 L394.97885673173084,521.5895947348342 M394.97885673173084,521.5895947348342 L396.02201707344005,524.8842423373007 M396.02201707344005,524.8842423373007 L398.4000585396896,527.9394306134735 M398.4000585396896,527.9394306134735 L401.9751389547673,530.5773693900624 M401.9751389547673,530.5773693900624 L406.5396163399174,532.6444469785786 M406.5396163399174,532.6444469785786 L411.8280918357794,534.0202292425403 M411.8280918357794,534.0202292425403 L417.532858549475,534.6245267555073 M417.532858549475,534.6245267555073 L423.3218686489437,534.4221068151217 M423.3218686489437,534.4221068151217 L428.8581496560326,533.4247727395046 M428.8581496560326,533.4247727395046 L433.8195082683097,531.690664154941 M433.8195082683097,531.690664154941 L437.91735515614556,529.3208375014628 M437.91735515614556,529.3208375014628 L440.913539404965,526.4533310165143 M440.913539404965,526.4533310165143 L442.63418713407583,523.2550716575804 M442.63418713407583,523.2550716575804 L442.9797457412208,519.9121075388916 M442.9797457412208,519.9121075388916 L441.9306669744494,516.6187561161836 M441.9306669744494,516.6187561161836 L439.5484286936914,513.5663044970414 M439.5484286936914,513.5663044970414 L435.9718355072999,510.9319164930964" stroke="black"  stroke-width="4"  fill="red"/>
<path d="M302.3703505862215,442.20766171494387 L302.4415817597292,475.88931288122404 M380.1633686671259,397.5129335893973 L380.1827264695403,431.1645694508098 M302.3703505862215,442.20766171494387 L380.1633686671259,397.5129335893973 M302.4415817597292,475.88931288122404 L380.1827264695403,431.1645694508098 M516.3015937229573,475.83315798611653 L516.230172240244,509.5373210336655 M380.1633686671259,397.5129335893973 L516.3015937229573,475.83315798611653 M380.1827264695403,431.1645694508098 L516.230172240244,509.5373210336655 M438.5085764329812,520.8071030545686 L438.4890283192538,554.5412820266217 M516.3015937229573,475.83315798611653 L438.5085764329812,520.8071030545686 M516.230172240244,509.5373210336655 L438.4890283192538,554.5412820266217 M438.5085764329812,520.8071030545686 L302.3703505862215,442.20766171494387 M438.4890283192538,554.5412820266217 L302.4415817597292,475.88931288122404" stroke="black"  stroke-width="4"  fill="red"/>
<path d="M392.7376288918747,454.9589738969835 L392.7247379467289,415.5441518048345 M496.00737442069044,452.8809663960718 L496.07502772332504,413.46777725847835 M392.7376288918747,454.9589738969835 L496.00737442069044,452.8809663960718 M392.7247379467289,415.5441518048345 L496.07502772332504,413.46777725847835 M484.66305660218615,275.7658871725463 L484.7214483474539,236.49286172221844 M496.00737442069044,452.8809663960718 L484.66305660218615,275.7658871725463 M496.07502772332504,413.46777725847835 L484.7214483474539,236.49286172221844 M129.37289499562843,282.8647498269827 L129.15607349451477,243.58606920664892 M484.66305660218615,275.7658871725463 L129.37289499562843,282.8647498269827 M484.7214483474539,236.49286172221844 L129.15607349451477,243.58606920664892 M138.2040114805975,460.08072926207797 L137.99254269806409,420.6618834967038 M129.37289499562843,282.8647498269827 L138.2040114805975,460.08072926207797 M129.15607349451477,243.58606920664892 L137.99254269806409,420.6618834967038 M241.51575209709654,458.0018781151335 L241.3848931043333,418.5846653085364 M138.2040114805975,460.08072926207797 L241.51575209709654,458.0018781151335 M137.99254269806409,420.6618834967038 L241.3848931043333,418.5846653085364 M392.7247379467289,415.5441518048345 L407.7011999218741,422.1499652630693 M407.7011999218741,422.1499652630693 L420.8790947779616,429.93080739964984 M420.8790947779616,429.93080739964984 L431.98449642828837,438.72700369215653 M431.98449642828837,438.72700369215653 L440.7855675806936,448.35768808764715 M440.7855675806936,448.35768808764715 L447.09743437978995,458.6243912616608 M447.09743437978995,458.6243912616608 L450.7862277819819,469.3150483677745 M450.7862277819819,469.3150483677745 L451.772051077419,480.20827517542966 M451.772051077419,480.20827517542966 L450.0309427588099,491.0779376996329 M450.0309427588099,491.0779376996329 L445.5956287660258,501.6977837451227 M445.5956287660258,501.6977837451227 L438.5551470825604,511.8462233152242 M438.5551470825604,511.8462233152242 L429.0532548573882,521.3109660404077 M429.0532548573882,521.3109660404077 L417.2856548688922,529.8935721578405 M417.2856548688922,529.8935721578405 L403.49607822439515,537.4137298078408 M403.49607822439515,537.4137298078408 L387.9712581686043,543.713126837865 M387.9712581686043,543.713126837865 L371.0350205048216,548.6589478369915 M371.0350205048216,548.6589478369915 L353.0413611839164,552.1467836972305 M353.0413611839164,552.1467836972305 L334.36706341652825,554.1029144569883 M334.36706341652825,554.1029144569883 L315.40345267738786,554.4859882250529 M315.40345267738786,554.4859882250529 L296.5481377260396,553.2878903064187 M296.5481377260396,553.2878903064187 L278.19637972347635,550.5339715518392 M278.19637972347635,550.5339715518392 L260.7325987626108,546.2824454538813 M260.7325987626108,546.2824454538813 L244.52217020323525,540.6231148267753 M244.52217020323525,540.6231148267753 L229.90357172535545,533.6753912544026 M229.90357172535545,533.6753912544026 L217.1812677015685,525.5856369828027 M217.1812677015685,525.5856369828027 L206.61930642321823,516.5239748830032 M206.61930642321823,516.5239748830032 L198.4358204935918,506.68060502205435 M198.4358204935918,506.68060502205435 L192.7986732110977,496.26165931814216 M192.7986732110977,496.26165931814216 L189.82212404538555,485.48480483618226 M189.82212404538555,485.48480483618226 L189.5647011977708,474.5746224268843 M189.5647011977708,474.5746224268843 L192.02824765022245,463.75789657170736 M192.02824765022245,463.75789657170736 L197.15817713153132,453.25889294163824 M197.15817713153132,453.25889294163824 L204.8448978440423,443.2947366015046 M204.8448978440423,443.2947366015046 L214.92632044858368,434.07099526201006 M214.92632044858368,434.07099526201006 L227.19146986021954,425.777516954545 M227.19146986021954,425.777516954545 L241.3848931043333,418.5846653085364 M241.51575209709654,458.0018781151335 L227.3334329004964,465.20038312009376 M227.3334329004964,465.20038312009376 L215.07789656944763,473.50037586225784 M215.07789656944763,473.50037586225784 L205.00439545131468,482.73135733728986 M205.00439545131468,482.73135733728986 L197.32373770574202,492.7033290696789 M197.32373770574202,492.7033290696789 L192.19788302832265,503.21056093757664 M192.19788302832265,503.21056093757664 L189.7363338858594,514.0357568847826 M189.7363338858594,514.0357568847826 L189.99362975724472,524.9544752170477 M189.99362975724472,524.9544752170477 L192.96792482199163,535.7397540611652 M192.96792482199163,535.7397540611652 L198.6007325095146,546.1668374986751 M198.6007325095146,546.1668374986751 L206.77787900739926,556.0178893539639 M206.77787900739926,556.0178893539639 L217.33162930415838,565.0866180729304 M217.33162930415838,565.0866180729304 L230.04401931398672,573.1826767314308 M230.04401931398672,573.1826767314308 L244.65120622266545,580.1358114605725 M244.65120622266545,580.1358114605725 L260.84896384071925,585.7995475815636 M260.84896384071925,585.7995475815636 L278.2990803275916,590.0543819643401 M278.2990803275916,590.0543819643401 L296.6364681266408,592.8104430565006 M296.6364681266408,592.8104430565006 L315.4770105676877,594.0094728566012 M315.4770105676877,594.0094728566012 L334.42575885690326,593.626101143152 M334.42575885690326,593.626101143152 L353.0854186102777,591.6684488109565 M353.0854186102777,591.6684488109565 L371.06497368410885,588.1778993557027 M371.06497368410885,588.1778993557027 L387.9879384099112,583.2282291311294 M387.9879384099112,583.2282291311294 L403.5005958975106,576.9239272200701 M403.5005958975106,576.9239272200701 L417.27937496727304,569.3979109490974 M417.27937496727304,569.3979109490974 L429.0377670426114,560.8086142186191 M429.0377670426114,560.8086142186191 L438.5322310881881,551.3364879095745 M438.5322310881881,551.3364879095745 L445.5672159380695,541.1801252214727 M445.5672159380695,541.1801252214727 L449.99907467989567,530.5519811808385 M449.99907467989567,530.5519811808385 L451.73883623564416,519.6738182198283 M451.73883623564416,519.6738182198283 L450.75379725528467,508.7720651958973 M450.75379725528467,508.7720651958973 L447.067897512875,498.0730332710683 M447.067897512875,498.0730332710683 L440.76096853654366,487.79828072209125 M440.76096853654366,487.79828072209125 L431.96677253691985,478.1600396654145 M431.96677253691985,478.1600396654145 L420.870037421849,469.3569364617416 M420.870037421849,469.3569364617416 L407.7024187333367,461.5699806862327 M407.7024187333367,461.5699806862327 L392.7376288918747,454.9589738969835" stroke="black"  stroke-width="4"  fill="red"/>
<path d="M392.7247379467289,415.5441518048345 L496.07502772332504,413.46777725847835 M496.07502772332504,413.46777725847835 L496.09437662568894,402.19557148617787 M392.7210511250967,404.2714780734549 L496.09437662568894,402.19557148617787 M392.7247379467289,415.5441518048345 L392.7210511250967,404.2714780734549 M496.07502772332504,413.46777725847835 L484.7214483474539,236.49286172221844 M484.7214483474539,236.49286172221844 L129.15607349451477,243.58606920664892 M129.15607349451477,243.58606920664892 L137.99254269806409,420.6618834967038 M137.99254269806409,420.6618834967038 L241.3848931043333,418.5846653085364 M392.7247379467289,415.5441518048345 L407.7011999218741,422.1499652630693 M407.7011999218741,422.1499652630693 L420.8790947779616,429.93080739964984 M420.8790947779616,429.93080739964984 L431.98449642828837,438.72700369215653 M431.98449642828837,438.72700369215653 L440.7855675806936,448.35768808764715 M440.7855675806936,448.35768808764715 L447.09743437978995,458.6243912616608 M447.09743437978995,458.6243912616608 L450.7862277819819,469.3150483677745 M450.7862277819819,469.3150483677745 L451.772051077419,480.20827517542966 M451.772051077419,480.20827517542966 L450.0309427588099,491.0779376996329 M450.0309427588099,491.0779376996329 L445.5956287660258,501.6977837451227 M445.5956287660258,501.6977837451227 L438.5551470825604,511.8462233152242 M438.5551470825604,511.8462233152242 L429.0532548573882,521.3109660404077 M429.0532548573882,521.3109660404077 L417.2856548688922,529.8935721578405 M417.2856548688922,529.8935721578405 L403.49607822439515,537.4137298078408 M403.49607822439515,537.4137298078408 L387.9712581686043,543.713126837865 M387.9712581686043,543.713126837865 L371.0350205048216,548.6589478369915 M371.0350205048216,548.6589478369915 L353.0413611839164,552.1467836972305 M353.0413611839164,552.1467836972305 L334.36706341652825,554.1029144569883 M334.36706341652825,554.1029144569883 L315.40345267738786,554.4859882250529 M315.40345267738786,554.4859882250529 L296.5481377260396,553.2878903064187 M296.5481377260396,553.2878903064187 L278.19637972347635,550.5339715518392 M278.19637972347635,550.5339715518392 L260.7325987626108,546.2824454538813 M260.7325987626108,546.2824454538813 L244.52217020323525,540.6231148267753 M244.52217020323525,540.6231148267753 L229.90357172535545,533.6753912544026 M229.90357172535545,533.6753912544026 L217.1812677015685,525.5856369828027 M217.1812677015685,525.5856369828027 L206.61930642321823,516.5239748830032 M206.61930642321823,516.5239748830032 L198.4358204935918,506.68060502205435 M198.4358204935918,506.68060502205435 L192.7986732110977,496.26165931814216 M192.7986732110977,496.26165931814216 L189.82212404538555,485.48480483618226 M189.82212404538555,485.48480483618226 L189.5647011977708,474.5746224268843 M189.5647011977708,474.5746224268843 L192.02824765022245,463.75789657170736 M192.02824765022245,463.75789657170736 L197.15817713153132,453.25889294163824 M197.15817713153132,453.25889294163824 L204.8448978440423,443.2947366015046 M204.8448978440423,443.2947366015046 L214.92632044858368,434.07099526201006 M214.92632044858368,434.07099526201006 L227.19146986021954,425.777516954545 M227.19146986021954,425.777516954545 L241.3848931043333,418.5846653085364 M484.7214483474539,236.49286172221844 L484.8887813647151,123.94829201545843 M496.2689056625362,300.5191466644552 L484.8887813647151,123.94829201545843 M496.12341615695243,385.27783807799744 L496.2689056625362,300.5191466644552 M496.12341615695243,385.27783807799744 L495.37528282838866,373.62968847202166 M495.34650676435626,390.54347319367116 L495.37528282838866,373.62968847202166 M496.09437662568894,402.19557148617787 L495.34650676435626,390.54347319367116 M494.472552917677,359.5744900975386 L494.4440944559294,376.4835053413358 M494.472552917677,359.5744900975386 L491.93935510667865,320.1334163360779 M491.9117860826415,337.02901959458666 L491.93935510667865,320.1334163360779 M494.4440944559294,376.4835053413358 L491.9117860826415,337.02901959458666 M489.4140966809567,280.81611845749154 L489.38741166104285,297.6983105984317 M489.4140966809567,280.81611845749154 L486.8967589234405,241.6220042358624 M486.87095250582405,258.49078631266184 L486.8967589234405,241.6220042358624 M489.38741166104285,297.6983105984317 L486.87095250582405,258.49078631266184 M241.34746731295184,407.3113064648826 L227.1508682894761,414.5025380134737 M227.1508682894761,414.5025380134737 L214.88296951290283,422.79414945943284 M214.88296951290283,422.79414945943284 L204.7992813378537,432.0158159667972 M204.7992813378537,432.0158159667972 L197.11082659075623,441.97773261627384 M197.11082659075623,441.97773261627384 L191.97973168990822,452.47437823901197 M191.97973168990822,452.47437823901197 L189.51561398279094,463.28867677132786 M189.51561398279094,463.28867677132786 L189.77307312447968,474.19641298587925 M189.77307312447968,474.19641298587925 L192.75026694605697,484.9708532375465 M192.75026694605697,484.9708532375465 L198.38865534093435,495.3874668464742 M198.38865534093435,495.3874668464742 L206.5739543424018,505.2286352119211 M206.5739543424018,505.2286352119211 L217.1382639626191,514.2882721650128 M217.1382639626191,514.2882721650128 L229.86340340258886,522.3762197261705 M229.86340340258886,522.3762197261705 L244.48526560442764,529.3223925670856 M244.48526560442764,529.3223925670856 L260.69931807470516,534.9804606640903 M260.69931807470516,534.9804606640903 L278.1670071025158,539.2310386699041 M278.1670071025158,539.2310386699041 L296.5228750152385,541.9843434703491 M296.5228750152385,541.9843434703491 L315.3824149396911,543.1821743289476 M315.3824149396911,543.1821743289476 L334.35027637635187,542.7991859465417 M334.35027637635187,542.7991859465417 L353.02876065269925,540.8434912412929 M353.02876065269925,540.8434912412929 L371.0264538238015,537.3564330466695 M371.0264538238015,537.3564330466695 L387.9664875805781,532.4117151624976 M387.9664875805781,532.4117151624976 L403.4947861596423,526.113723776383 M403.4947861596423,526.113723776383 L417.28745093445394,518.5952450909 M417.28745093445394,518.5952450909 L429.05768440468376,510.01455636669846 M429.05768440468376,510.01455636669846 L438.5617011022253,500.55192962146987 M438.5617011022253,500.55192962146987 L445.60375488766954,490.40576064513556 M445.60375488766954,490.40576064513556 L450.0400570847976,479.7882926191646 M450.0400570847976,479.7882926191646 L451.78155057581233,468.92106612347294 M451.78155057581233,468.92106612347294 L450.7955029609701,458.03028272578496 M450.7955029609701,458.03028272578496 L447.10588196416757,447.34202563654134 M447.10588196416757,447.34202563654134 L440.79260293812166,437.07762920947795 M440.79260293812166,437.07762920947795 L431.98956548146697,427.44911035652996 M431.98956548146697,427.44911035652996 L420.8816851912488,418.6548934007806 M420.8816851912488,418.6548934007806 L407.70085134063373,410.8758032668208 M407.70085134063373,410.8758032668208 L392.7210511250967,404.2714780734549 M495.34650676435626,390.54347319367116 L488.1928072180688,386.4399144125533 M488.1928072180688,386.4399144125533 L487.56532350072075,376.62150144678213 M487.56532350072075,376.62150144678213 L494.4440944559294,376.4835053413358 M491.9117860826415,337.02901959458666 L485.0438074429831,337.16658220507003 M485.0438074429831,337.16658220507003 L482.5301900741179,297.8354409246181 M482.5301900741179,297.8354409246181 L489.38741166104285,297.6983105984317 M486.87095250582405,258.49078631266184 L480.02445851729,258.6274887793877 M480.02445851729,258.6274887793877 L478.2750968279334,231.254916666785 M478.2750968279334,231.254916666785 L236.00691201508698,236.08691088847954 M228.76807014923313,230.3649053681549 L231.58194639665376,232.09875586912892 M231.58194639665376,232.09875586912892 L234.00677732548087,234.01545138501365 M234.00677732548087,234.01545138501365 L236.00691201508698,236.08691088847954 M228.76807014923313,230.3649053681549 L179.9176171212767,231.33898173759187 M173.2986383007455,237.33761705824355 L175.07563443004233,235.19071984871695 M175.07563443004233,235.19071984871695 L177.29284719060314,233.18136133722288 M177.29284719060314,233.18136133722288 L179.9176171212767,231.33898173759187 M173.2986383007455,237.33761705824355 L136.22948043818468,238.07695209553958 M136.22948043818468,238.07695209553958 L144.5234882430717,403.30814678650125 M144.5234882430717,403.30814678650125 L172.0749026758937,402.7549977872102 M172.0749026758937,402.7549977872102 L172.0749026758937,402.7549977872102 M173.9662923314017,408.6644378556052 L172.98797332410186,406.7356897113445 M172.98797332410186,406.7356897113445 L172.35536651834906,404.75909083197115 M172.35536651834906,404.75909083197115 L172.0749026758937,402.7549977872102 M173.9662923314017,408.6644378556052 L239.68267493885938,407.3447427198476 M239.68267493885938,407.3447427198476 L240.45589638357893,405.3809298297596 M240.45589638357893,405.3809298297596 L240.87914136120588,403.3832336186517 M240.87914136120588,403.3832336186517 L240.9481348071381,401.3722531470642 M240.9481348071381,401.3722531470642 L240.9481348071381,401.3722531470642 M240.9481348071381,401.3722531470642 L258.266624579153,401.0245376006416 M258.266624579153,401.0245376006416 L252.444515863299,402.95298413219115 M252.444515863299,402.95298413219115 L246.79987501736395,405.0503810283172 M246.79987501736395,405.0503810283172 L241.34746731295184,407.3113064648826 M241.3848931043333,418.5846653085364 L241.34746731295184,407.3113064648826 M484.8887813647151,123.94829201545843 L128.53472836006023,131.0251978637167 M129.15607349451477,243.58606920664892 L128.53472836006023,131.0251978637167 M228.70811725092435,213.50576831032723 L228.76807014923313,230.3649053681549 M228.70811725092435,213.50576831032723 L179.84143530776842,214.47951029459168 M179.84143530776842,214.47951029459168 L179.9176171212767,231.33898173759187 M137.99254269806409,420.6618834967038 L137.38652398946272,307.6969450357603 M128.53472836006023,131.0251978637167 L137.38652398946272,307.6969450357603 M137.38652398946272,307.6969450357603 L241.00988277362882,305.6244346211707 M241.29129732761152,390.39184056689527 L241.00988277362882,305.6244346211707 M241.34746731295184,407.3113064648826 L241.29129732761152,390.39184056689527 M173.88757842181116,391.7445138238708 L173.9662923314017,408.6644378556052 M173.88757842181116,391.7445138238708 L239.62594798810858,390.4252655006606 M239.62594798810858,390.4252655006606 L239.68267493885938,407.3447427198476 M392.7155178098232,387.35304155685856 L496.12341615695243,385.27783807799744 M392.6877956186589,302.59081346650873 L496.2689056625362,300.5191466644552 M392.7155178098232,387.35304155685856 L392.6877956186589,302.59081346650873 M258.2161268565713,384.1072008715577 L252.3920670488236,386.03499417548477 M252.3920670488236,386.03499417548477 L246.7455338059567,388.13168072729115 M246.7455338059567,388.13168072729115 L241.29129732761152,390.39184056689527 M392.7155178098232,387.35304155685856 L407.70032817722193,393.95513063130306 M407.70032817722193,393.95513063130306 L420.88557297845597,401.73158837770984 M420.88557297845597,401.73158837770984 L431.9971733037556,410.52283137265186 M431.9971733037556,410.52283137265186 L440.80316186472714,420.1480964859611 M440.80316186472714,420.1480964859611 L447.1185604164912,430.40902700843435 M447.1185604164912,430.40902700843435 L450.8094235017072,441.09367804934357 M450.8094235017072,441.09367804934357 L451.7958077870702,451.9807901949141 M451.7958077870702,451.9807901949141 L450.0537362178425,462.8443565239388 M450.0537362178425,462.8443565239388 L445.61595088827534,473.45825153746995 M445.61595088827534,473.45825153746995 L438.571537633019,483.6010089055759 M438.571537633019,483.6010089055759 L429.0643324450837,493.0604563484839 M429.0643324450837,493.0604563484839 L417.2901465414515,501.638264147441 M417.2901465414515,501.638264147441 L403.49284697688427,509.1542201493291 M403.49284697688427,509.1542201493291 L387.9593276891583,515.4500995205319 M387.9593276891583,515.4500995205319 L371.013596601103,520.3931599458236 M371.013596601103,520.3931599458236 L353.00984926238135,523.8790496769959 M353.00984926238135,523.8790496769959 L334.3250817018297,525.8340891984087 M334.3250817018297,525.8340891984087 L315.3508406447063,526.2169492865048 M315.3508406447063,526.2169492865048 L296.48495970926473,525.0195196929617 M296.48495970926473,525.0195196929617 L278.12292347856237,522.2671373752604 M278.12292347856237,522.2671373752604 L260.6493690696682,518.0179839029494 M260.6493690696682,518.0179839029494 L244.42987769400463,512.3618127895329 M244.42987769400463,512.3618127895329 L229.80311717288996,505.41796996011607 M229.80311717288996,505.41796996011607 L217.07372223817424,497.33273702234874 M217.07372223817424,497.33273702234874 L206.5058881466075,488.27614289461394 M206.5058881466075,488.27614289461394 L198.3178680306871,478.4382823181242 M198.3178680306871,478.4382823181242 L192.6776169424618,468.02517272165085 M192.6776169424618,468.02517272165085 L189.69945561389414,457.2543598870382 M189.69945561389414,457.2543598870382 L189.44194201847506,446.35029911133097 M189.44194201847506,446.35029911133097 L191.90691710383612,435.53964765736754 M191.90691710383612,435.53964765736754 L197.03976112689125,425.0465449606728 M197.03976112689125,425.0465449606728 L204.73081839311732,415.0879934608875 M204.73081839311732,415.0879934608875 L214.817906833731,405.8694443982695 M214.817906833731,405.8694443982695 L227.08993196955282,397.5806379170089 M227.08993196955282,397.5806379170089 L241.29129732761152,390.39184056689527 M495.37528282838866,373.62968847202166 L488.21918758306725,369.52752117298604 M488.21918758306725,369.52752117298604 L487.59148390952396,359.71243936585165 M487.59148390952396,359.71243936585165 L494.472552917677,359.5744900975386 M491.93935510667865,320.1334163360779 L485.069085620736,320.2709321122026 M485.069085620736,320.2709321122026 L482.5545914200767,280.953201953042 M482.5545914200767,280.953201953042 L489.4140966809567,280.81611845749154 M486.8967589234405,241.6220042358624 L480.0479884010457,241.7586598755119 M480.0479884010457,241.7586598755119 L478.2980198557234,214.39547408101268 M478.2980198557234,214.39547408101268 L235.94935034432086,219.22580991700417 M228.70811725092435,213.50576831032723 L231.5229240428112,215.23902362507908 M231.5229240428112,215.23902362507908 L233.94855597805196,217.15506128180778 M233.94855597805196,217.15506128180778 L235.94935034432086,219.22580991700417 M173.22023903520136,220.47608693386064 L174.9978322590739,218.3299264114982 M174.9978322590739,218.3299264114982 L177.21578782411999,216.3212575031472 M177.21578782411999,216.3212575031472 L179.84143530776842,214.47951029459168 M173.22023903520136,220.47608693386064 L136.1387623253146,221.21516830381526 M136.1387623253146,221.21516830381526 L144.43494375709594,386.39003653542704 M144.43494375709594,386.39003653542704 L171.9955746960464,385.83707489036817 M171.9955746960464,385.83707489036817 L171.9955746960464,385.83707489036817 M173.88757842181116,391.7445138238708 L172.90893820381248,389.81641871640977 M172.90893820381248,389.81641871640977 L172.27612602116187,387.84048917782604 M172.27612602116187,387.84048917782604 L171.9955746960464,385.83707489036817 M239.62594798810858,390.4252655006606 L240.3994324952148,388.4621175894633 M240.3994324952148,388.4621175894633 L240.82282351819507,386.4650979359329 M240.82282351819507,386.4650979359329 L240.89184454393342,384.454798628095 M240.89184454393342,384.454798628095 L240.89184454393342,384.454798628095 M240.89184454393342,384.454798628095 L258.2161268565713,384.1072008715577 M488.1928072180688,386.4399144125533 L488.21918758306725,369.52752117298604 M487.56532350072075,376.62150144678213 L487.59148390952396,359.71243936585165 M485.0438074429831,337.16658220507003 L485.069085620736,320.2709321122026 M482.5301900741179,297.8354409246181 L482.5545914200767,280.953201953042 M480.02445851729,258.6274887793877 L480.0479884010457,241.7586598755119 M258.266624579153,401.0245376006416 L258.2161268565713,384.1072008715577 M240.94813487869095,401.37224246022515 L240.8918446155341,384.45478794487605 M240.9481348071381,401.3722531470642 L240.89184454393342,384.454798628095 M172.07490247421964,402.75501916323975 L171.99557449423747,385.8370962591574 M172.0749026758937,402.7549977872102 L171.9955746960464,385.83707489036817 M144.5234882430717,403.30814678650125 L144.43494375709594,386.39003653542704 M136.22948043818468,238.07695209553958 L136.1387623253146,221.21516830381526 M173.2986383007455,237.33761705824355 L173.22023903520136,220.47608693386064 M236.00691201508698,236.08691088847954 L235.94935034432086,219.22580991700417 M478.2750968279334,231.254916666785 L478.2980198557234,214.39547408101268 M241.00988277362882,305.6244346211707 L226.78463765536867,312.8009877649599 M226.78463765536867,312.8009877649599 L214.49193901667263,321.0756850055169 M214.49193901667263,321.0756850055169 L204.38781479438194,330.2785529579055 M204.38781479438194,330.2785529579055 L196.6837184623472,340.22017728579215 M196.6837184623472,340.22017728579215 L191.54211091542498,350.6954584842747 M191.54211091542498,350.6954584842747 L189.07283998572672,361.48776444399857 M189.07283998572672,361.48776444399857 L189.3306260767327,372.37333697132266 M189.3306260767327,372.37333697132266 L192.313634378113,383.12590302328323 M192.313634378113,383.12590302328323 L197.96321741966537,393.5213865029558 M197.96321741966537,393.5213865029558 L206.16487028848934,403.34260793868617 M206.16487028848934,403.34260793868617 L216.75036206921635,412.3838957005164 M216.75036206921635,412.3838957005164 L229.50107724143285,420.455473175189 M229.50107724143285,420.455473175189 L244.15237866906457,427.387595225699 M244.15237866906457,427.387595225699 L260.3991193967871,433.0342238143637 M260.3991193967871,433.0342238143637 L277.9020598954979,437.2762113424912 M277.9020598954979,437.2762113424912 L296.2950000048935,440.0239532140745 M296.2950000048935,440.0239532140745 L315.1926500627916,441.219364286788 M315.1926500627916,441.219364286788 L334.19885370200626,440.8371495695851 M334.19885370200626,440.8371495695851 L352.9151011997167,438.885405878995 M352.9151011997167,438.885405878995 L370.94918057553247,435.4053939680818 M370.94918057553247,435.4053939680818 L387.9234559011947,430.4706711811417 M387.9234559011947,430.4706711811417 L403.4831314779177,424.1854160065758 M403.4831314779177,424.1854160065758 L417.3036517931606,416.6821499708904 M417.3036517931606,416.6821499708904 L429.0976397474665,408.11883416101136 M429.0976397474665,408.11883416101136 L438.6208195323394,398.67537957172203 M438.6208195323394,398.67537957172203 L445.6770538928809,388.5497835459346 M445.6770538928809,388.5497835459346 L450.12226978445335,377.9538616939572 M450.12226978445335,377.9538616939572 L451.86723751037505,367.10870684017044 M451.86723751037505,367.10870684017044 L450.8791664191185,356.2400618365707 M450.8791664191185,356.2400618365707 L447.1820803267003,345.57354985636664 M447.1820803267003,345.57354985636664 L440.85606276322284,335.33005336007886 M440.85606276322284,335.33005336007886 L432.0352889512897,325.72115497385596 M432.0352889512897,325.72115497385596 L420.9050510126506,316.9448713173824 M420.9050510126506,316.9448713173824 L407.69770710051586,309.1816547078114 M407.69770710051586,309.1816547078114 L392.6877956186589,302.59081346650873" stroke="black"  stroke-width="4"  fill="red"/>
<path d="M217.47543055719092,420.83066013366243 L208.39854815363813,428.3764547744174 M208.39854815363813,428.3764547744174 L200.96796457195944,436.5007975441107 M200.96796457195944,436.5007975441107 L195.29445438436142,445.08486403220076 M195.29445438436142,445.08486403220076 L191.46323222055153,454.00287521577576 M191.46323222055153,454.00287521577576 L188.52431134260286,454.0620039719986 M190.5888708274007,493.88592791076485 L182.28752695041655,493.47308715018846 M182.28752695041655,493.47308715018846 L174.40954498768,491.92533413961604 M174.40954498768,491.92533413961604 L167.41363635558577,489.3330154998763 M167.41363635558577,489.3330154998763 L161.70685452082864,485.84737033784694 M161.70685452082864,485.84737033784694 L157.6207591546221,481.6716303119953 M157.6207591546221,481.6716303119953 L155.39227777103642,477.04900492999457 M155.39227777103642,477.04900492999457 L155.14993666091362,472.2485086268296 M155.14993666091362,472.2485086268296 L156.90673543030195,467.5491494023588 M156.90673543030195,467.5491494023588 L160.55953702490024,463.2237859141881 M160.55953702490024,463.2237859141881 L165.89536265973732,459.52329400734914 M165.89536265973732,459.52329400734914 L172.60391178426585,456.662097836224 M172.60391178426585,456.662097836224 L180.29564120531978,454.80586040571785 M180.29564120531978,454.80586040571785 L188.52431134260286,454.0620039719986 M190.5888708274007,493.88592791076485 L197.30955433269972,493.75050831687327 M197.30955433269972,493.75050831687327 L204.75764624246372,503.3350754847208 M204.75764624246372,503.3350754847208 L214.44345666711718,512.2326589507893 M214.44345666711718,512.2326589507893 L226.18197004426605,520.2703907587033 M226.18197004426605,520.2703907587033 L239.74783380687322,527.2918062181847 M239.74783380687322,527.2918062181847 L254.87964385035895,533.159987163355 M254.87964385035895,533.159987163355 L271.2850096553735,537.7603306905221 M271.2850096553735,537.7603306905221 L288.6462879987784,541.0028878500482 M288.6462879987784,541.0028878500482 L306.6268459590741,542.8241835361898 M306.6268459590741,542.8241835361898 L324.8777094518567,543.1885617099401 M324.8777094518567,543.1885617099401 L343.0445081390464,542.0888773476099 M343.0445081390464,542.0888773476099 L360.7745666987672,539.5466733881078 M360.7745666987672,539.5466733881078 L377.7239126797217,535.6117228100235 M377.7239126797217,535.6117228100235 L393.56407836448994,530.3610009786755 M393.56407836448994,530.3610009786755 L407.98868413931353,523.8971327905444 M407.98868413931353,523.8971327905444 L420.7193372628075,516.3462489975425 M420.7193372628075,516.3462489975425 L431.5111606034081,507.8554853920913 M431.5111606034081,507.8554853920913 L440.15741321927914,498.58994979005985 M440.15741321927914,498.58994979005985 L446.49343266418134,488.7294595582176 M446.49343266418134,488.7294595582176 L460.12100719964286,488.4548652747127 M457.63157955396906,448.6480593351957 L465.9226585505511,449.0594398659313 M465.9226585505511,449.0594398659313 L473.80510774109393,450.6019405045744 M473.80510774109393,450.6019405045744 L480.82170610568886,453.1863021836214 M480.82170610568886,453.1863021836214 L486.5651551410778,456.6629243464918 M486.5651551410778,456.6629243464918 L490.70160010246553,460.8303887563103 M490.70160010246553,460.8303887563103 L492.99008527164165,465.4470607219923 M492.99008527164165,465.4470607219923 L493.2966707956058,470.24497491254925 M493.2966707956058,470.24497491254925 L491.60240859733386,474.94533414959113 M491.60240859733386,474.94533414959113 L488.0047597321366,479.2747185477138 M488.0047597321366,479.2747185477138 L482.7120933412223,482.9810199685216 M482.7120933412223,482.9810199685216 L476.0317849900995,485.8481947295485 M476.0317849900995,485.8481947295485 L468.35239909090126,487.70901775089806 M468.35239909090126,487.70901775089806 L460.12100719964286,488.4548652747127 M457.63157955396906,448.6480593351957 L447.79514046870776,448.8459512260638 M447.79514046870776,448.8459512260638 L447.0025486730547,447.1268419413619 M447.0025486730547,447.1268419413619 L446.1400699780886,445.41915143831045 M446.1400699780886,445.41915143831045 L445.20820284586745,443.7238240938261 M445.20820284586745,443.7238240938261 L516.4566679389986,402.65284215703156 M516.4566679389986,402.65284215703156 L488.1928072180688,386.4399144125533 M488.1928072180688,386.4399144125533 L487.56532350072075,376.62150144678213 M487.56532350072075,376.62150144678213 L494.44412230681485,376.4835053413358 M491.9118070149221,337.0290209651441 L500.1667031474134,337.4367629999881 M500.1667031474134,337.4367629999881 L508.0162959690922,338.9656243940349 M508.0162959690922,338.9656243940349 L515.0052905558994,341.52712917815404 M515.0052905558994,341.52712917815404 L520.7279702654987,344.97299444822863 M520.7279702654987,344.97299444822863 L524.8517122833191,349.1035865408566 M524.8517122833191,349.1035865408566 L527.1362777345887,353.67940615331827 M527.1362777345887,353.67940615331827 L527.4479726386205,358.4348549918475 M527.4479726386205,358.4348549918475 L525.7675665048237,363.0936111604659 M525.7675665048237,363.0936111604659 L522.191721374656,367.38466161615474 M522.191721374656,367.38466161615474 L516.9275402169113,371.0581405184971 M516.9275402169113,371.0581405184971 L510.28075321614665,373.8999280625581 M510.28075321614665,373.8999280625581 L502.63796592942447,375.74426288497307 M502.63796592942447,375.74426288497307 L494.44412230681485,376.4835053413358 M491.9118070149221,337.0290209651441 L485.0438074429831,337.16658220507003 M485.0438074429831,337.16658220507003 L482.5301900741179,297.8354409246181 M482.5301900741179,297.8354409246181 L489.38743248791917,297.6983119232912 M486.87097561405415,258.49078895408775 L495.09993207981387,258.89597970297814 M495.09993207981387,258.89597970297814 L502.92463975746796,260.4152740544796 M502.92463975746796,260.4152740544796 L509.89121835577595,262.9607541397541 M509.89121835577595,262.9607541397541 L515.5952583164122,266.3850671154959 M515.5952583164122,266.3850671154959 L519.7052352761484,270.4898140444401 M519.7052352761484,270.4898140444401 L521.9817045732755,275.03699775407443 M521.9817045732755,275.03699775407443 L522.2914485058243,279.762681045195 M522.2914485058243,279.762681045195 L520.6153569036362,284.39227144588057 M520.6153569036362,284.39227144588057 L517.0498474171252,288.6564533585156 M517.0498474171252,288.6564533585156 L511.8014314637065,292.3069243805478 M511.8014314637065,292.3069243805478 L505.1749131914933,295.1309168507672 M505.1749131914933,295.1309168507672 L497.55572742346084,296.96369892692576 M497.55572742346084,296.96369892692576 L489.38743248791917,297.6983119232912 M486.87097561405415,258.49078895408775 L480.02445851729,258.6274887793877 M480.02445851729,258.6274887793877 L478.2750968279334,231.254916666785 M478.2750968279334,231.254916666785 L236.00691201508698,236.08691088847954 M173.2986383007455,237.33761705824355 L177.07972329403245,233.35281313414143 M177.07972329403245,233.35281313414143 L182.35664133071677,229.96702462767047 M182.35664133071677,229.96702462767047 L188.8468704866643,227.36089428783205 M188.8468704866643,227.36089428783205 L196.203406819107,225.67337055838664 M196.203406819107,225.67337055838664 L204.03322835349843,224.99436777826458 M204.03322835349843,224.99436777826458 L211.9182717381351,225.3600790636267 M211.9182717381351,225.3600790636267 L219.43748201006503,226.7510057596965 M219.43748201006503,226.7510057596965 L226.18926013497688,229.0930455528187 M226.18926013497688,229.0930455528187 L231.81271496233614,232.26134412940763 M231.81271496233614,232.26134412940763 L236.00691201508698,236.08691088847954 M173.2986383007455,237.33761705824355 L136.22948043818468,238.07695209553958 M136.22948043818468,238.07695209553958 L144.5234882430717,403.30814678650125 M144.5234882430717,403.30814678650125 L172.0749026758937,402.7549977872102 M172.0749026758937,402.7549977872102 L172.0749026758937,402.7549977872102 M217.47543055719092,420.83066013366243 L209.6310712998923,421.7999830441571 M209.6310712998923,421.7999830441571 L201.61775853333293,421.70174817800046 M201.61775853333293,421.70174817800046 L193.86959833436032,420.54128662613067 M193.86959833436032,420.54128662613067 L186.80624430839026,418.38160450083313 M186.80624430839026,418.38160450083313 L180.81005192337165,415.33991216415575 M180.81005192337165,415.33991216415575 L176.2052326842637,411.58118515821457 M176.2052326842637,411.58118515821457 L173.24033597384403,407.3091146277874 M173.24033597384403,407.3091146277874 L172.0749026758937,402.7549977872102 M240.94813487869095,401.37224246022515 L258.266624579153,401.0245376006416 M258.266624579153,401.0245376006416 L251.6671587896262,403.2280341737662 M251.6671587896262,403.2280341737662 L245.2992426631014,405.6485657006968 M245.2992426631014,405.6485657006968 L239.184357411921,408.2780534669502 M239.184357411921,408.2780534669502 L240.2440864843473,406.0199823499416 M240.2440864843473,406.0199823499416 L240.83470763451766,403.70732796150236 M240.83470763451766,403.70732796150236 L240.94813487869095,401.37224246022515 M240.94813487869095,401.37224246022515 L240.94813487869095,401.37224246022515 M217.47543055719092,420.83066013366243 L217.4112406280776,403.90661913498894 M191.46323222055153,454.00287521577576 L191.39024011948274,437.06762896596683 M217.4112406280776,403.90661913498894 L208.33130011174956,411.4498623082115 M208.33130011174956,411.4498623082115 L200.89820632112782,419.57145967833975 M200.89820632112782,419.57145967833975 L195.2227716401909,428.1526273231898 M195.2227716401909,428.1526273231898 L191.39024011948274,437.06762896596683 M172.07490247421964,402.75501916323975 L171.99557449423747,385.8370962591574 M217.4112406280776,403.90661913498894 L209.56425336650008,404.8756142025255 M209.56425336650008,404.8756142025255 L201.54825879185123,404.7774125600817 M201.54825879185123,404.7774125600817 L193.79750859717808,403.6173435037799 M193.79750859717808,403.6173435037799 L186.7317969575309,401.4583919294603 M186.7317969575309,401.4583919294603 L180.73360714928285,398.41772870983726 M180.73360714928285,398.41772870983726 L176.12725871702636,394.660273760236 M176.12725871702636,394.660273760236 L173.1613834683971,390.38964947193654 M173.1613834683971,390.38964947193654 L171.99557449423747,385.8370962591574 M188.52431134260286,454.0620039719986 L188.45033414284381,437.1267377752028 M191.39024011948274,437.06762896596683 L188.45033414284381,437.1267377752028 M172.0749026758937,402.7549977872102 L171.9955746960464,385.83707489036817 M171.9955746960464,385.83707489036817 L171.99557449423747,385.8370962591574 M190.5888708274007,493.88592791076485 L190.51546963756124,476.93724830243417 M190.51546963756124,476.93724830243417 L182.2113405597002,476.52454637764936 M182.2113405597002,476.52454637764936 L174.33071913630906,474.9773139071865 M174.33071913630906,474.9773139071865 L167.33247076755688,472.3858672584728 M167.33247076755688,472.3858672584728 L161.62378521047245,468.90139486186797 M161.62378521047245,468.90139486186797 L157.5363327171019,464.7270602132931 M157.5363327171019,464.7270602132931 L155.30711929600534,460.10599115213955 M155.30711929600534,460.10599115213955 L155.0647131291949,455.30711165603344 M155.0647131291949,455.30711165603344 L156.82211686567152,450.609335769356 M156.82211686567152,450.609335769356 L160.47615760332474,446.28543012909336 M160.47615760332474,446.28543012909336 L165.81378408097197,442.58618585445504 M165.81378408097197,442.58618585445504 L172.5245909556381,439.7259545940729 M172.5245909556381,439.7259545940729 L180.2189040458526,437.8703432781447 M180.2189040458526,437.8703432781447 L188.45033414284381,437.1267377752028 M144.5234882430717,403.30814678650125 L144.43494375709594,386.39003653542704 M144.43494375709594,386.39003653542704 L171.9955746960464,385.83707489036817 M197.30955433269972,493.75050831687327 L197.23840940467358,476.801874248814 M190.51546963756124,476.93724830243417 L197.23840940467358,476.801874248814 M136.22948043818468,238.07695209553958 L136.1387623253146,221.21516830381526 M136.1387623253146,221.21516830381526 L144.43494375709594,386.39003653542704 M446.49343266418134,488.7294595582176 L446.5059264243484,471.7825143635596 M197.23840940467358,476.801874248814 L204.68897525978434,486.3832194258475 M204.68897525978434,486.3832194258475 L214.37801499533063,495.2778140275448 M214.37801499533063,495.2778140275448 L226.12045183120202,503.31284762156315 M226.12045183120202,503.31284762156315 L239.69085806606205,510.3319074440563 M239.69085806606205,510.3319074440563 L254.82774195784927,516.1981206604526 M254.82774195784927,516.1981206604526 L271.23861455220526,520.7969222327774 M271.23861455220526,520.7969222327774 L288.60572535350786,524.0383928819516 M288.60572535350786,524.0383928819516 L306.59232749510903,525.8590784141891 M306.59232749510903,525.8590784141891 L324.8493285908734,526.2233345278713 M324.8493285908734,526.2233345278713 L343.02223807528856,525.1240185505765 M343.02223807528856,525.1240185505765 L360.7582609604197,522.5826663311987 M360.7582609604197,522.5826663311987 L377.7133081479852,518.6490344580765 M377.7133081479852,518.6490344580765 L393.5588006713753,513.400072922507 M393.5588006713753,513.400072922507 L407.9882553535022,506.9383727424636 M407.9882553535022,506.9383727424636 L420.7231856102018,499.3900229544029 M420.7231856102018,499.3900229544029 L431.5186320705914,490.9021105800127 M431.5186320705914,490.9021105800127 L440.1677847053738,481.63968856839705 M440.1677847053738,481.63968856839705 L446.5059264243484,471.7825143635596 M173.2986383007455,237.33761705824355 L173.22023903520136,220.47608693386064 M173.22023903520136,220.47608693386064 L136.1387623253146,221.21516830381526 M460.12100719964286,488.4548652747127 L460.1380741013591,471.5080124615676 M446.5059264243484,471.7825143635596 L460.1380741013591,471.5080124615676 M236.00691201508698,236.08691088847954 L235.94935034432086,219.22580991700417 M173.22023903520136,220.47608693386064 L177.0025925995488,216.49265045436073 M177.0025925995488,216.49265045436073 L182.28127382668458,213.10802416333317 M182.28127382668458,213.10802416333317 L188.77366635739654,210.50278861891485 M188.77366635739654,210.50278861891485 L196.13265069379852,208.81584438451648 M196.13265069379852,208.81584438451648 L203.96507431138522,208.1370747950765 M203.96507431138522,208.1370747950765 L211.85273523186706,208.50266048228025 M211.85273523186706,208.50266048228025 L219.3744390356806,209.89310951754214 M219.3744390356806,209.89310951754214 L226.12845376960263,212.2343451425477 M226.12845376960263,212.2343451425477 L231.7537688808992,215.40155607709596 M231.7537688808992,215.40155607709596 L235.94935034432086,219.22580991700417 M457.63157955396906,448.6480593351957 L457.64778540686655,431.7146199090873 M457.64778540686655,431.7146199090873 L465.9416427246378,432.1258616046267 M465.9416427246378,432.1258616046267 L473.8267343785738,433.6678417108813 M473.8267343785738,433.6678417108813 L480.84568636981226,436.2513314128655 M480.84568636981226,436.2513314128655 L486.5910637299265,439.72678082557667 M486.5910637299265,439.72678082557667 L490.72889960724456,443.89283987080717 M490.72889960724456,443.89283987080717 L493.0181570717176,448.5079555281214 M493.0181570717176,448.5079555281214 L493.3248507542329,453.3042529131584 M493.3248507542329,453.3042529131584 L491.6300255394211,458.0030288125658 M491.6300255394211,458.0030288125658 L488.03117452262484,462.3309553575275 M488.03117452262484,462.3309553575275 L482.7367362350518,466.0360091347927 M482.7367362350518,466.0360091347927 L476.0541890734853,468.90221897616 M476.0541890734853,468.90221897616 L468.3722277788555,470.7624158727002 M468.3722277788555,470.7624158727002 L460.1380741013591,471.5080124615676 M478.2750968279334,231.254916666785 L478.2980198557234,214.39547408101268 M478.2980198557234,214.39547408101268 L235.94935034432086,219.22580991700417 M447.79514046870776,448.8459512260638 L447.80805062332274,431.9124450136381 M457.64778540686655,431.7146199090873 L447.80805062332274,431.9124450136381 M480.02445851729,258.6274887793877 L480.0479884010457,241.7586598755119 M480.0479884010457,241.7586598755119 L478.2980198557234,214.39547408101268 M445.2202437636469,426.79204687789667 L445.20820284586745,443.7238240938261 M447.80805062332274,431.9124450136381 L447.0151923962294,430.1939159440211 M447.0151923962294,430.1939159440211 L446.152423898383,428.4868018799347 M446.152423898383,428.4868018799347 L445.2202437636469,426.79204687789667 M486.87097561405415,258.49078895408775 L486.8967820393574,241.62200687638347 M486.8967820393574,241.62200687638347 L480.0479884010457,241.7586598755119 M516.4566679389986,402.65284215703156 L516.4925181295145,385.7349538616841 M445.2202437636469,426.79204687789667 L516.4925181295145,385.7349538616841 M489.38743248791917,297.6983119232912 L489.41411751477085,280.8161197818986 M486.8967820393574,241.62200687638347 L495.12847534037104,242.02705882967814 M495.12847534037104,242.02705882967814 L502.9557869015478,243.54583279513946 M502.9557869015478,243.54583279513946 L509.92468568121956,246.09044114463217 M509.92468568121956,246.09044114463217 L515.6306275892921,249.51358168765347 M515.6306275892921,249.51358168765347 L519.7419777029695,253.6169236246268 M519.7419777029695,253.6169236246268 L522.0192111780268,258.1625514261554 M522.0192111780268,258.1625514261554 L522.32906528584,262.8866183147933 M522.32906528584,262.8866183147933 L520.6524227191576,267.51462575719404 M520.6524227191576,267.51462575719404 L517.0857324822724,271.77735015705167 M517.0857324822724,271.77735015705167 L511.8355741489414,275.4265738191336 M511.8355741489414,275.4265738191336 L505.2068529849583,278.2496015789169 M505.2068529849583,278.2496015789169 L497.58513204972854,280.0817576677598 M497.58513204972854,280.0817576677598 L489.41411751477085,280.8161197818986 M488.1928072180688,386.4399144125533 L488.21918758306725,369.52752117298604 M516.4925181295145,385.7349538616841 L488.21918758306725,369.52752117298604 M482.5301900741179,297.8354409246181 L482.5545914200767,280.953201953042 M482.5545914200767,280.953201953042 L489.41411751477085,280.8161197818986 M487.56532350072075,376.62150144678213 L487.59148390952396,359.71243936585165 M488.21918758306725,369.52752117298604 L487.59148390952396,359.71243936585165 M485.0438074429831,337.16658220507003 L485.069085620736,320.2709321122026 M485.069085620736,320.2709321122026 L482.5545914200767,280.953201953042 M494.44412230681485,376.4835053413358 L494.47258077786745,359.5744900975386 M487.59148390952396,359.71243936585165 L494.47258077786745,359.5744900975386 M491.9118070149221,337.0290209651441 L491.9393760459431,320.13341770616876 M491.9393760459431,320.13341770616876 L485.069085620736,320.2709321122026 M491.9393760459431,320.13341770616876 L500.19702629749423,320.54102092324024 M500.19702629749423,320.54102092324024 L508.0492395977484,322.06936184831363 M508.0492395977484,322.06936184831363 L515.0405693220143,324.6299947608926 M515.0405693220143,324.6299947608926 L520.7651634275643,328.07468742074224 M520.7651634275643,328.07468742074224 L524.8902878116537,332.20387431031656 M524.8902878116537,332.20387431031656 L527.1756228812403,336.778137785757 M527.1756228812403,336.778137785757 L527.487429307037,341.53196998938256 M527.487429307037,341.53196998938256 L525.8064693761805,346.18914297744027 M525.8064693761805,346.18914297744027 L522.2294366422461,350.4787357203671 M522.2294366422461,350.4787357203671 L516.9635026226342,354.1509670942691 M516.9635026226342,354.1509670942691 L510.31449923103276,356.99178980189834 M510.31449923103276,356.99178980189834 L502.669161044299,358.83549855541384 M502.669161044299,358.83549855541384 L494.47258077786745,359.5744900975386 M240.94813487869095,401.37224246022515 L240.8918446155341,384.45478794487605 M258.266624579153,401.0245376006416 L258.2161268565713,384.1072008715577 M240.8918446155341,384.45478794487605 L258.2161268565713,384.1072008715577 M240.9481348071381,401.3722531470642 L240.89184454393342,384.454798628095 M240.89184454393342,384.454798628095 L240.8918446155341,384.45478794487605 M239.184357411921,408.2780534669502 L239.127461656242,391.3582602495678 M258.2161268565713,384.1072008715577 L251.61444940955133,386.30995105671616 M251.61444940955133,386.30995105671616 L245.24439821484503,388.7296628285174 M245.24439821484503,388.7296628285174 L239.127461656242,391.3582602495678 M239.127461656242,391.3582602495678 L240.18755031145798,389.10095370484015 M240.18755031145798,389.10095370484015 L240.77837420386712,386.7890825108958 M240.77837420386712,386.7890825108958 L240.89184454393342,384.454798628095" stroke="black"  stroke-width="4"  fill="red"/></svg>